<?xml version="1.0" encoding="UTF-8" standalone="no"?>
<!-- Created with Inkscape (http://www.inkscape.org/) -->

<svg
   xmlns:dc="http://purl.org/dc/elements/1.1/"
   xmlns:cc="http://creativecommons.org/ns#"
   xmlns:rdf="http://www.w3.org/1999/02/22-rdf-syntax-ns#"
   xmlns:svg="http://www.w3.org/2000/svg"
   xmlns="http://www.w3.org/2000/svg"
   xmlns:sodipodi="http://sodipodi.sourceforge.net/DTD/sodipodi-0.dtd"
   xmlns:inkscape="http://www.inkscape.org/namespaces/inkscape"
   width="166.93721mm"
   height="33.371563mm"
   viewBox="0 0 166.93721 33.371563"
   version="1.1"
   id="svg8"
   inkscape:version="0.92.3 (2405546, 2018-03-11)"
   sodipodi:docname="Class_Loader2.svg">
  <defs
     id="defs2">
    <clipPath
       id="clipEmfPath1"
       clipPathUnits="userSpaceOnUse">
      <path
         id="path10"
         d="M -1.9201332,3.8402665 H 637.64424 V 131.36912 H -1.9201332 Z"
         inkscape:connector-curvature="0" />
    </clipPath>
    <pattern
       y="0"
       x="0"
       height="6"
       width="6"
       patternUnits="userSpaceOnUse"
       id="EMFhbasepattern" />
  </defs>
  <sodipodi:namedview
     id="base"
     pagecolor="#ffffff"
     bordercolor="#666666"
     borderopacity="1.0"
     inkscape:pageopacity="0.0"
     inkscape:pageshadow="2"
     inkscape:zoom="1.4"
     inkscape:cx="473.36508"
     inkscape:cy="124.43034"
     inkscape:document-units="mm"
     inkscape:current-layer="layer1"
     showgrid="false"
     fit-margin-top="0"
     fit-margin-left="0"
     fit-margin-right="0"
     fit-margin-bottom="0"
     inkscape:window-width="1920"
     inkscape:window-height="1017"
     inkscape:window-x="-8"
     inkscape:window-y="-8"
     inkscape:window-maximized="1" />
  <metadata
     id="metadata5">
    <rdf:RDF>
      <cc:Work
         rdf:about="">
        <dc:format>image/svg+xml</dc:format>
        <dc:type
           rdf:resource="http://purl.org/dc/dcmitype/StillImage" />
        <dc:title></dc:title>
      </cc:Work>
    </rdf:RDF>
  </metadata>
  <g
     inkscape:label="Laag 1"
     inkscape:groupmode="layer"
     id="layer1"
     transform="translate(-56.382588,-253.09994)">
    <path
       inkscape:connector-curvature="0"
       style="fill:none;fill-opacity:1;fill-rule:evenodd;stroke:none;stroke-width:0.26458332"
       d="m 181.35926,261.78416 v 15.96078 h 31.58285 v -15.96078 z"
       id="path16" />
    <path
       inkscape:connector-curvature="0"
       style="fill:none;fill-opacity:1;fill-rule:nonzero;stroke:#7f7f7f;stroke-width:0.01058407px;stroke-linecap:butt;stroke-linejoin:round;stroke-miterlimit:4;stroke-dasharray:none;stroke-opacity:1"
       d="m 181.18991,277.74494 v -1.01607 h 0.33869 v 1.01607 z m 0,-1.35476 v -1.01607 h 0.33869 v 1.01607 z m 0,-1.35476 v -1.01608 h 0.33869 v 1.01608 z m 0,-1.35477 v -1.01607 h 0.33869 v 1.01607 z m 0,-1.35476 v -1.01607 h 0.33869 v 1.01607 z m 0,-1.35476 v -1.01607 h 0.33869 v 1.01607 z m 0,-1.35476 v -1.01607 h 0.33869 v 1.01607 z m 0,-1.35476 v -1.01607 h 0.33869 v 1.01607 z m 0,-1.35476 v -1.01607 h 0.33869 v 1.01607 z m 0,-1.35476 v -1.01607 h 0.33869 v 1.01607 z m 0,-1.35476 v -1.01607 h 0.33869 v 1.01607 z m 0,-1.35476 v -1.01607 h 0.33869 v 1.01607 z m 0.4657,-1.22775 h 1.01607 v 0.33869 h -1.01607 z m 1.35476,0 h 1.01607 v 0.33869 h -1.01607 z m 1.35476,0 h 1.01608 v 0.33869 h -1.01608 z m 1.35476,0 h 1.01607 v 0.33869 h -1.01607 z m 1.35476,0 h 1.01608 v 0.33869 h -1.01608 z m 1.35476,0 h 1.01608 v 0.33869 h -1.01608 z m 1.35477,0 h 1.01607 v 0.33869 h -1.01607 z m 1.35476,0 h 1.01607 v 0.33869 h -1.01607 z m 1.35476,0 h 1.01607 v 0.33869 h -1.01607 z m 1.35476,0 h 1.01607 v 0.33869 h -1.01607 z m 1.35476,0 h 1.01607 v 0.33869 h -1.01607 z m 1.35476,0 h 1.01607 v 0.33869 h -1.01607 z m 1.35476,0 h 1.01607 v 0.33869 h -1.01607 z m 1.35476,0 h 1.01607 v 0.33869 h -1.01607 z m 1.35476,0 h 1.01607 v 0.33869 h -1.01607 z m 1.35476,0 h 1.01607 v 0.33869 h -1.01607 z m 1.35476,0 h 1.01607 v 0.33869 h -1.01607 z m 1.35476,0 h 1.01607 v 0.33869 h -1.01607 z m 1.35476,0 h 1.01607 v 0.33869 h -1.01607 z m 1.35476,0 h 1.01608 v 0.33869 h -1.01608 z m 1.35476,0 h 1.01608 v 0.33869 h -1.01608 z m 1.35477,0 h 1.01607 v 0.33869 h -1.01607 z m 1.35476,0 h 1.01607 v 0.33869 h -1.01607 z m 1.35476,0 h 0.29635 v 1.0584 h -0.33869 v -0.88906 l 0.16934,0.16935 h -0.127 z m 0.29635,1.39709 v 1.01608 h -0.33869 v -1.01608 z m 0,1.35477 v 1.01607 h -0.33869 v -1.01607 z m 0,1.35476 v 1.01607 h -0.33869 v -1.01607 z m 0,1.35476 v 1.01607 h -0.33869 v -1.01607 z m 0,1.35476 v 1.01607 h -0.33869 v -1.01607 z m 0,1.35476 v 1.01607 h -0.33869 v -1.01607 z m 0,1.35476 v 1.01607 h -0.33869 v -1.01607 z m 0,1.35476 v 1.01607 h -0.33869 v -1.01607 z m 0,1.35476 v 1.01607 h -0.33869 V 273.85 Z m 0,1.35476 v 1.01607 h -0.33869 v -1.01607 z m 0,1.35476 v 1.01607 h -0.33869 v -1.01607 z m -0.33869,1.35476 h -1.01607 v -0.33869 h 1.01607 z m -1.35476,0 h -1.01607 v -0.33869 h 1.01607 z m -1.35476,0 h -1.01607 v -0.33869 h 1.01607 z m -1.35476,0 h -1.01607 v -0.33869 h 1.01607 z m -1.35476,0 h -1.01607 v -0.33869 h 1.01607 z m -1.35476,0 h -1.01607 v -0.33869 h 1.01607 z m -1.35476,0 h -1.01607 v -0.33869 h 1.01607 z m -1.35476,0 h -1.01607 v -0.33869 h 1.01607 z m -1.35476,0 h -1.01607 v -0.33869 h 1.01607 z m -1.35477,0 h -1.01607 v -0.33869 h 1.01607 z m -1.35475,0 h -1.01608 v -0.33869 h 1.01608 z m -1.35477,0 h -1.01607 v -0.33869 h 1.01607 z m -1.35476,0 h -1.01607 v -0.33869 h 1.01607 z m -1.35476,0 h -1.01607 v -0.33869 h 1.01607 z m -1.35476,0 h -1.01607 v -0.33869 h 1.01607 z m -1.35476,0 h -1.01607 v -0.33869 h 1.01607 z m -1.35476,0 h -1.01607 v -0.33869 h 1.01607 z m -1.35476,0 h -1.01607 v -0.33869 h 1.01607 z m -1.35476,0 h -1.01607 v -0.33869 h 1.01607 z m -1.35476,0 h -1.01607 v -0.33869 h 1.01607 z m -1.35476,0 h -1.01607 v -0.33869 h 1.01607 z m -1.35476,0 h -1.01607 v -0.33869 h 1.01607 z m -1.35476,0 h -1.01607 v -0.33869 h 1.01607 z m -1.35476,0 h -0.25402 v -0.33869 h 0.25402 z"
       id="path18" />
    <text
       xml:space="preserve"
       style="font-style:normal;font-variant:normal;font-weight:400;font-size:4.23333311px;line-height:125%;font-family:Arial;text-align:start;letter-spacing:0px;word-spacing:0px;text-anchor:start;fill:#000000;fill-opacity:1;stroke:none;stroke-width:0.26458332"
       x="181.88007"
       y="266.30374"
       id="text24"><tspan
         sodipodi:role="line"
         x="181.88007"
         y="266.30374"
         id="tspan22"
         style="stroke-width:0.26458332"><tspan
           dx="0"
           dy="0"
           style="font-style:normal;font-variant:normal;font-weight:400;font-size:4.23333311px;font-family:Arial;fill:#7f7f7f;stroke-width:0.26458332"
           id="tspan20">Class (binary)</tspan></tspan></text>
    <path
       inkscape:connector-curvature="0"
       style="fill:none;fill-opacity:1;fill-rule:evenodd;stroke:none;stroke-width:0.26458332"
       d="m 118.9556,262.12285 h 31.58285 v 12.80672 c -15.79142,0 -15.79142,4.87926 -31.58285,2.10623 z"
       id="path26" />
    <path
       inkscape:connector-curvature="0"
       style="fill:none;stroke:#7f7f7f;stroke-width:0.33869016px;stroke-linecap:butt;stroke-linejoin:miter;stroke-miterlimit:8;stroke-dasharray:none;stroke-opacity:1"
       d="m 118.9556,262.12285 h 31.58285 v 12.80672 c -15.79142,0 -15.79142,4.87926 -31.58285,2.10623 z"
       id="path28" />
    <text
       xml:space="preserve"
       style="font-style:normal;font-variant:normal;font-weight:400;font-size:4.23333311px;line-height:125%;font-family:Calibri;text-align:start;letter-spacing:0px;word-spacing:0px;text-anchor:start;fill:#000000;fill-opacity:1;stroke:none;stroke-width:0.26458332"
       x="119.46839"
       y="266.63641"
       id="text34"><tspan
         sodipodi:role="line"
         x="119.46839"
         y="266.63641"
         id="tspan32"
         style="stroke-width:0.26458332"><tspan
           dx="0"
           dy="0"
           style="font-style:normal;font-variant:normal;font-weight:400;font-size:4.23333311px;font-family:Calibri;fill:#7f7f7f;stroke-width:0.26458332"
           id="tspan30">Class file</tspan></tspan></text>
    <path
       inkscape:connector-curvature="0"
       style="fill:none;fill-opacity:1;fill-rule:evenodd;stroke:none;stroke-width:0.26458332"
       d="M 56.551933,262.12285 H 88.13479 v 12.80672 c -15.791428,0 -15.791428,4.87926 -31.582857,2.10623 z"
       id="path36" />
    <path
       inkscape:connector-curvature="0"
       style="fill:none;stroke:#7f7f7f;stroke-width:0.33869016px;stroke-linecap:butt;stroke-linejoin:miter;stroke-miterlimit:8;stroke-dasharray:none;stroke-opacity:1"
       d="M 56.551933,262.12285 H 88.13479 v 12.80672 c -15.791428,0 -15.791428,4.87926 -31.582857,2.10623 z"
       id="path38" />
    <text
       xml:space="preserve"
       style="font-style:normal;font-variant:normal;font-weight:400;font-size:4.23333311px;line-height:125%;font-family:Calibri;text-align:start;letter-spacing:0px;word-spacing:0px;text-anchor:start;fill:#000000;fill-opacity:1;stroke:none;stroke-width:0.26458332"
       x="57.056629"
       y="266.63641"
       id="text44"><tspan
         sodipodi:role="line"
         x="57.056629"
         y="266.63641"
         id="tspan42"
         style="stroke-width:0.26458332"><tspan
           dx="0"
           dy="0"
           style="font-style:normal;font-variant:normal;font-weight:400;font-size:4.23333311px;font-family:Calibri;fill:#7f7f7f;stroke-width:0.26458332"
           id="tspan40">Java file</tspan></tspan></text>
    <path
       inkscape:connector-curvature="0"
       style="fill:#7f7f7f;fill-opacity:1;fill-rule:nonzero;stroke:#7f7f7f;stroke-width:0.01058407px;stroke-linecap:butt;stroke-linejoin:round;stroke-miterlimit:4;stroke-dasharray:none;stroke-opacity:1"
       d="m 88.13479,269.95506 h 29.07444 v 0.34928 H 88.13479 Z m 28.72516,-0.88906 2.11681,1.05841 -2.11681,1.0584 z"
       id="path46" />
    <path
       inkscape:connector-curvature="0"
       style="fill:#7f7f7f;fill-opacity:1;fill-rule:nonzero;stroke:#7f7f7f;stroke-width:0.01058407px;stroke-linecap:butt;stroke-linejoin:round;stroke-miterlimit:4;stroke-dasharray:none;stroke-opacity:1"
       d="m 150.53845,269.61637 h 29.07444 v 0.34928 h -29.07444 z m 28.72516,-0.88906 2.11682,1.05841 -2.11682,1.0584 z"
       id="path48" />
    <path
       inkscape:connector-curvature="0"
       style="fill:#ffffff;fill-opacity:1;fill-rule:evenodd;stroke:none;stroke-width:0.26458332"
       d="m 101.04735,270.12441 c 0,-1.37593 1.12191,-2.49784 2.49784,-2.49784 1.38652,0 2.49784,1.12191 2.49784,2.49784 0,1.38651 -1.11132,2.49784 -2.49784,2.49784 -1.37593,0 -2.49784,-1.11133 -2.49784,-2.49784 z"
       id="path50" />
    <path
       inkscape:connector-curvature="0"
       style="fill:none;stroke:#7f7f7f;stroke-width:0.33869016px;stroke-linecap:butt;stroke-linejoin:miter;stroke-miterlimit:8;stroke-dasharray:none;stroke-opacity:1"
       d="m 101.04735,270.12441 c 0,-1.37593 1.12191,-2.49784 2.49784,-2.49784 1.38652,0 2.49784,1.12191 2.49784,2.49784 0,1.38651 -1.11132,2.49784 -2.49784,2.49784 -1.37593,0 -2.49784,-1.11133 -2.49784,-2.49784"
       id="path52" />
    <text
       xml:space="preserve"
       style="font-style:normal;font-variant:normal;font-weight:400;font-size:4.23333311px;line-height:125%;font-family:Calibri;text-align:start;letter-spacing:0px;word-spacing:0px;text-anchor:start;fill:#000000;fill-opacity:1;stroke:none;stroke-width:0.26458332"
       x="89.750412"
       y="277.56674"
       id="text58"><tspan
         sodipodi:role="line"
         x="89.750412"
         y="277.56674"
         id="tspan56"
         style="stroke-width:0.26458332"><tspan
           dx="0"
           dy="0"
           style="font-style:normal;font-variant:normal;font-weight:400;font-size:4.23333311px;font-family:Calibri;fill:#7f7f7f;stroke-width:0.26458332"
           id="tspan54">Javac</tspan></tspan></text>
    <text
       xml:space="preserve"
       style="font-style:normal;font-variant:normal;font-weight:400;font-size:4.23333311px;line-height:125%;font-family:Calibri;text-align:start;letter-spacing:0px;word-spacing:0px;text-anchor:start;fill:#000000;fill-opacity:1;stroke:none;stroke-width:0.26458332"
       x="99.699432"
       y="277.56674"
       id="text64"><tspan
         sodipodi:role="line"
         x="99.699432"
         y="277.56674"
         id="tspan62"
         style="stroke-width:0.26458332"><tspan
           dx="0"
           dy="0"
           style="font-style:normal;font-variant:normal;font-weight:400;font-size:4.23333311px;font-family:Calibri;fill:#7f7f7f;stroke-width:0.26458332"
           id="tspan60">(compiler)</tspan></tspan></text>
    <path
       inkscape:connector-curvature="0"
       style="fill:#ffffff;fill-opacity:1;fill-rule:evenodd;stroke:none;stroke-width:0.26458332"
       d="m 163.45101,270.12441 c 0,-1.37593 1.12192,-2.49784 2.49785,-2.49784 1.38651,0 2.49783,1.12191 2.49783,2.49784 0,1.38651 -1.11132,2.49784 -2.49783,2.49784 -1.37593,0 -2.49785,-1.11133 -2.49785,-2.49784 z"
       id="path66" />
    <path
       inkscape:connector-curvature="0"
       style="fill:none;stroke:#7f7f7f;stroke-width:0.33869016px;stroke-linecap:butt;stroke-linejoin:miter;stroke-miterlimit:8;stroke-dasharray:none;stroke-opacity:1"
       d="m 163.45101,270.12441 c 0,-1.37593 1.12192,-2.49784 2.49785,-2.49784 1.38651,0 2.49783,1.12191 2.49783,2.49784 0,1.38651 -1.11132,2.49784 -2.49783,2.49784 -1.37593,0 -2.49785,-1.11133 -2.49785,-2.49784"
       id="path68" />
    <text
       xml:space="preserve"
       style="font-style:normal;font-variant:normal;font-weight:400;font-size:4.23333311px;line-height:125%;font-family:Calibri;text-align:start;letter-spacing:0px;word-spacing:0px;text-anchor:start;fill:#000000;fill-opacity:1;stroke:none;stroke-width:0.26458332"
       x="155.63284"
       y="277.56674"
       id="text74"><tspan
         sodipodi:role="line"
         x="155.63284"
         y="277.56674"
         id="tspan72"
         style="stroke-width:0.26458332"><tspan
           dx="0"
           dy="0"
           style="font-style:normal;font-variant:normal;font-weight:400;font-size:4.23333311px;font-family:Calibri;fill:#7f7f7f;stroke-width:0.26458332"
           id="tspan70">Class loader</tspan></tspan></text>
    <path
       inkscape:connector-curvature="0"
       style="fill:#7f7f7f;fill-opacity:1;fill-rule:nonzero;stroke:#7f7f7f;stroke-width:0.04000277px;stroke-linecap:butt;stroke-linejoin:round;stroke-miterlimit:4;stroke-dasharray:none;stroke-opacity:1"
       clip-path="url(#clipEmfPath1)"
       d="m 375.46605,120.24834 v -3.84026 h 1.28009 v 3.84026 z m 0,-5.12035 v -3.84027 h 1.28009 v 3.84027 z m 0,-5.12036 v -3.84026 h 1.28009 v 3.84026 z m 0,-5.12035 v -3.84027 h 1.28009 v 3.84027 z m 0,-5.120357 v -3.840267 h 1.28009 v 3.840267 z m 0,-5.120356 v -3.840266 h 1.28009 v 3.840266 z m 0,-5.120355 v -3.840266 h 1.28009 v 3.840266 z m 0,-5.120355 V 80.56559 h 1.28009 v 3.840267 z m 0,-5.120356 v -3.840266 h 1.28009 v 3.840266 z m 0,-5.120355 V 70.32488 h 1.28009 v 3.840266 z m 0,-5.120355 v -3.840267 h 1.28009 v 3.840267 z m 0,-5.120355 v -3.840267 h 1.28009 v 3.840267 z m 0,-5.120356 v -3.840266 h 1.28009 v 3.840266 z m 0,-5.120355 v -3.840266 h 1.28009 v 3.840266 z m 0,-5.120355 v -3.840267 h 1.28009 v 3.840267 z m 0,-5.120356 v -3.840266 h 1.28009 v 3.840266 z m 0,-5.120355 v -3.840266 h 1.28009 v 3.840266 z m 0,-5.120355 v -3.840267 h 1.28009 v 3.840267 z m 0,-5.120355 v -3.840267 h 1.28009 v 3.840267 z m 0,-5.120356 v -3.840266 h 1.28009 v 3.840266 z m 0,-5.120355 v -3.200222 l 0.04,-0.640045 1.28008,0.04 -0.04,0.680047 v -0.04 3.160219 z m 0.24002,-5.200361 v -0.04 l 0.24002,-0.960066 0.36002,-0.960067 0.40003,-0.880061 0.52003,-0.880061 0.08,-0.080006 1.00007,0.8000555 -0.04,0.040003 0.04,-0.040003 -0.48003,0.8000555 0.04,-0.08 -0.40003,0.840058 v -0.04 l -0.32002,0.880061 0.04,-0.08 -0.24001,0.920064 v -0.04 0 z m 2.44017,-4.8403357 0.36002,-0.360025 0.72005,-0.6800472 0.76006,-0.6000416 0.88006,-0.5200361 0.52003,-0.2400167 0.56004,1.1600805 -0.52003,0.2400167 0.08,-0.040003 -0.80005,0.4800333 0.04,-0.040003 -0.72005,0.5600389 0.04,-0.040003 -0.68005,0.6400444 0.04,-0.040003 -0.36003,0.360025 z m 4.48031,-2.9202027 h 0.08 l 0.96006,-0.2400166 1.04007,-0.1600111 1.00007,-0.080006 h 0.96007 v 1.2800888 h -0.92006 0.04 l -1.00007,0.080006 h 0.08 l -0.96007,0.1200083 h 0.04 l -0.92006,0.2400167 0.08,-0.040003 h -0.04 z m 5.32037,-0.4800333 h 3.84027 v 1.2800888 h -3.84027 z m 5.12035,0 h 3.84027 v 1.2800888 h -3.84027 z m 5.12036,0 h 3.84027 v 1.2800888 h -3.84027 z m 5.12035,0 h 3.84027 v 1.2800888 h -3.84027 z m 5.12036,0 h 3.84027 v 1.2800888 h -3.84027 z m 5.12036,0 h 3.84026 v 1.2800888 h -3.84026 z m 5.12035,0 h 3.84027 v 1.2800888 h -3.84027 z m 5.12036,0 h 3.84026 v 1.2800888 h -3.84026 z m 5.12035,0 h 3.84027 v 1.2800888 h -3.84027 z m 5.12036,0 h 3.84026 v 1.2800888 h -3.84026 z m 5.12035,0 h 3.84027 v 1.2800888 h -3.84027 z m 5.12036,0 h 3.84026 v 1.2800888 h -3.84026 z m 5.12035,0 h 3.84027 v 1.2800888 h -3.84027 z m 5.12036,0 h 3.84026 v 1.2800888 h -3.84026 z m 5.12035,0 h 3.84027 v 1.2800888 h -3.84027 z m 5.12036,0 h 3.84026 v 1.2800888 h -3.84026 z m 5.12035,0 h 3.84027 v 1.2800888 h -3.84027 z m 5.12036,0 h 3.84027 v 1.2800888 h -3.84027 z m 5.12035,0 h 3.84027 v 1.2800888 h -3.84027 z m 5.12036,0 h 3.84027 v 1.2800888 h -3.84027 z m 5.12035,0 h 3.84027 v 1.2800888 h -3.84027 z m 5.12036,0 h 3.84027 v 1.2800888 h -3.84027 z m 5.12036,0 h 3.84026 v 1.2800888 h -3.84026 z m 5.12035,0 h 3.84027 v 1.2800888 h -3.84027 z m 5.12036,0 h 3.84026 v 1.2800888 h -3.84026 z m 5.12035,0 h 3.84027 v 1.2800888 h -3.84027 z m 5.12036,0 h 3.84026 v 1.2800888 h -3.84026 z m 5.12035,0 h 3.84027 v 1.2800888 h -3.84027 z m 5.12036,0 h 3.84026 v 1.2800888 h -3.84026 z m 5.12035,0 h 3.84027 v 1.2800888 h -3.84027 z m 5.12036,0 h 3.84026 v 1.2800888 h -3.84026 z m 5.12035,0 h 3.84027 v 1.2800888 h -3.84027 z m 5.12036,0 h 3.84026 v 1.2800888 h -3.84026 z m 5.12035,0 h 3.84027 v 1.2800888 h -3.84027 z m 5.12036,0 h 3.84027 V 5.6803941 H 562.039 Z m 5.12035,0 h 3.84027 v 1.2800888 h -3.84027 z m 5.12036,0 h 3.84027 v 1.2800888 h -3.84027 z m 5.12035,0 h 3.84027 v 1.2800888 h -3.84027 z m 5.12036,0 h 3.84027 v 1.2800888 h -3.84027 z m 5.12036,0 h 3.84026 v 1.2800888 h -3.84026 z m 5.12035,0 h 3.84027 v 1.2800888 h -3.84027 z m 5.12036,0 h 3.84026 v 1.2800888 h -3.84026 z m 5.12035,0 h 3.84027 v 1.2800888 h -3.84027 z m 5.12036,0 h 3.84026 v 1.2800888 h -3.84026 z m 5.12035,0 h 3.84027 v 1.2800888 h -3.84027 z m 5.12036,0 h 3.84026 v 1.2800888 h -3.84026 z m 5.12035,0 h 3.08022 l 0.80005,0.040003 -0.08,1.2800888 -0.76006,-0.040003 v 0 h -3.04021 z m 5.24037,0.2800195 0.84005,0.2000138 0.96007,0.360025 0.92006,0.4000278 0.84006,0.5200361 0.16001,0.1600111 -0.76005,1.0000694 -0.16001,-0.1200084 0.04,0.040003 -0.76005,-0.4800333 0.04,0.040003 -0.84006,-0.4000278 h 0.04 l -0.88006,-0.3200222 0.08,0.040003 -0.84006,-0.2000139 z m 4.76033,2.4801721 0.32002,0.2800194 0.64004,0.7200499 0.60004,0.8000556 0.52004,0.8400582 0.32002,0.640044 -1.16008,0.560039 -0.32002,-0.640044 0.04,0.08 -0.48003,-0.8000551 0.04,0.040003 -0.56004,-0.7200499 0.04,0.040003 -0.64005,-0.6800472 0.04,0.040003 -0.24001,-0.2400166 z m 2.8802,4.6003191 0.20001,0.840058 0.16001,1.040073 0.04,1.000069 v 1.080075 h -1.28009 v -1.040072 0.04 l -0.04,-1.000069 v 0.08001 l -0.12001,-0.960067 v 0.04 l -0.20001,-0.800056 z m 0.40002,5.240364 v 3.840266 h -1.28009 V 17.00118 Z m 0,5.120355 v 3.840266 h -1.28009 v -3.840266 z m 0,5.120355 v 3.840267 h -1.28009 V 27.24189 Z m 0,5.120356 v 3.840266 h -1.28009 v -3.840266 z m 0,5.120355 v 3.840266 h -1.28009 v -3.840266 z m 0,5.120355 v 3.840267 h -1.28009 v -3.840267 z m 0,5.120355 v 3.840267 h -1.28009 v -3.840267 z m 0,5.120356 v 3.840266 h -1.28009 v -3.840266 z m 0,5.120355 v 3.840266 h -1.28009 v -3.840266 z m 0,5.120355 v 3.840267 h -1.28009 v -3.840267 z m 0,5.120356 v 3.840266 h -1.28009 v -3.840266 z m 0,5.120355 v 3.840266 h -1.28009 v -3.840266 z m 0,5.120355 v 3.840267 h -1.28009 v -3.840267 z m 0,5.120355 v 3.840267 h -1.28009 v -3.840267 z m 0,5.120356 v 3.840266 h -1.28009 v -3.840266 z m 0,5.120355 v 3.840266 h -1.28009 v -3.840266 z m 0,5.120355 v 3.840266 h -1.28009 v -3.840266 z m 0,5.120356 v 3.84027 h -1.28009 v -3.84027 z m 0,5.12035 v 3.84027 h -1.28009 v -3.84027 z m 0,5.12036 v 3.84027 h -1.28009 v -3.84027 z m 0,5.12036 v 0.88006 l -0.04,1.04007 -0.16001,1.00007 -0.24002,0.96006 -0.04,0.12001 -1.20008,-0.44003 0.04,-0.08 -0.04,0.08 0.24001,-0.92006 v 0.04 l 0.12001,-0.96007 v 0.08 l 0.04,-0.96007 v 0 -0.84005 z m -1.00007,5.28036 -0.20001,0.48004 -0.52004,0.84005 -0.60004,0.76006 -0.64004,0.76005 -0.44003,0.40003 -0.88006,-0.96007 0.40002,-0.40003 -0.04,0.04 0.64005,-0.68005 -0.04,0.08 0.56004,-0.76005 -0.04,0.04 0.48003,-0.76005 -0.04,0.04 0.24002,-0.48003 z m -3.52024,4.08028 -0.80006,0.52004 -0.92006,0.40003 -0.96007,0.36002 -0.96006,0.24002 -0.12001,0.04 -0.20001,-1.28009 h 0.08 -0.04 l 0.92006,-0.24001 -0.08,0.04 0.92006,-0.32002 h -0.08 l 0.84006,-0.40003 -0.04,0.04 0.76005,-0.48003 z m -5.08035,1.72012 h -0.60004 -3.28023 v -1.28008 h 3.24022 v 0 h 0.56004 z m -5.16036,0 h -3.84027 v -1.28008 h 3.84027 z m -5.12036,0 h -3.84026 v -1.28008 h 3.84026 z m -5.12035,0 h -3.84027 v -1.28008 h 3.84027 z m -5.12036,0 h -3.84026 v -1.28008 h 3.84026 z m -5.12035,0 h -3.84027 v -1.28008 h 3.84027 z m -5.12036,0 h -3.84026 v -1.28008 h 3.84026 z m -5.12035,0 h -3.84027 v -1.28008 h 3.84027 z m -5.12036,0 h -3.84026 v -1.28008 h 3.84026 z m -5.12035,0 h -3.84027 v -1.28008 h 3.84027 z m -5.12036,0 h -3.84026 v -1.28008 h 3.84026 z m -5.12035,0 h -3.84027 v -1.28008 h 3.84027 z m -5.12036,0 h -3.84027 v -1.28008 h 3.84027 z m -5.12035,0 h -3.84027 v -1.28008 h 3.84027 z m -5.12036,0 h -3.84027 v -1.28008 h 3.84027 z m -5.12035,0 h -3.84027 v -1.28008 h 3.84027 z m -5.12036,0 h -3.84027 v -1.28008 h 3.84027 z m -5.12036,0 h -3.84026 v -1.28008 h 3.84026 z m -5.12035,0 h -3.84027 v -1.28008 h 3.84027 z m -5.12036,0 h -3.84026 v -1.28008 h 3.84026 z m -5.12035,0 h -3.84027 v -1.28008 h 3.84027 z m -5.12036,0 h -3.84026 v -1.28008 h 3.84026 z m -5.12035,0 h -3.84027 v -1.28008 h 3.84027 z m -5.12036,0 h -3.84026 v -1.28008 h 3.84026 z m -5.12035,0 h -3.84027 v -1.28008 h 3.84027 z m -5.12036,0 h -3.84026 v -1.28008 h 3.84026 z m -5.12035,0 h -3.84027 v -1.28008 h 3.84027 z m -5.12036,0 h -3.84026 v -1.28008 h 3.84026 z m -5.12035,0 h -3.84027 v -1.28008 h 3.84027 z m -5.12036,0 h -3.84027 v -1.28008 h 3.84027 z m -5.12035,0 h -3.84027 v -1.28008 h 3.84027 z m -5.12036,0 h -3.84027 v -1.28008 h 3.84027 z m -5.12035,0 h -3.84027 v -1.28008 h 3.84027 z m -5.12036,0 h -3.84027 v -1.28008 h 3.84027 z m -5.12036,0 h -3.84026 v -1.28008 h 3.84026 z m -5.12035,0 h -3.84027 v -1.28008 h 3.84027 z m -5.12036,0 h -3.84026 v -1.28008 h 3.84026 z m -5.12035,0 h -3.84027 v -1.28008 h 3.84027 z m -5.12036,0 h -3.84026 v -1.28008 h 3.84026 z m -5.12035,0 h -3.84027 v -1.28008 h 3.84027 z m -5.12036,0 h -3.84026 v -1.28008 h 3.84026 z m -5.12035,0 h -3.84027 v -1.28008 h 3.84027 z m -5.12036,0 h -3.84026 v -1.28008 h 3.84026 z m -5.12035,0 h -3.84027 v -1.28008 h 3.84027 z m -5.12036,0 h -3.84026 v -1.28008 h 3.84026 z m -5.12035,0 h -3.84027 v -1.28008 h 3.84027 z m -5.12036,0 h -3.84027 v -1.28008 h 3.84027 z m -5.12035,0 h -0.76006 l -1.00007,-0.04 -1.04007,-0.16001 -0.96006,-0.24002 -0.24002,-0.08 0.44003,-1.20009 0.20001,0.08 -0.08,-0.04 0.92006,0.24001 h -0.04 l 0.96007,0.12001 h -0.08 l 1.00007,0.04 h -0.04 0.72005 z m -5.24037,-1.04007 -0.36002,-0.16001 -0.84006,-0.52004 -0.80006,-0.60004 -0.72005,-0.64004 -0.52003,-0.56004 0.96006,-0.84006 0.48004,0.48004 -0.04,-0.04 0.68005,0.64005 -0.08,-0.04 0.76005,0.56004 -0.04,-0.04 0.80005,0.48003 -0.08,-0.04 0.36002,0.16001 z m -4.08028,-3.60025 -0.44003,-0.68004 -0.40003,-0.92007 -0.36002,-0.96007 -0.24002,-0.96006 -0.04,-0.24002 1.24008,-0.20001 0.04,0.20001 v -0.04 l 0.24001,0.92006 -0.04,-0.08 0.32002,0.88006 v -0.04 l 0.40003,0.84005 -0.04,-0.04 0.40002,0.68005 z m -1.64011,-5.12035 -0.04,-0.44003 1.28009,-0.04 0.04,0.44003 z"
       id="path76"
       transform="matrix(0.26458333,0,0,0.26458333,54.837314,251.94098)" />
    <text
       xml:space="preserve"
       style="font-style:normal;font-variant:normal;font-weight:400;font-size:4.23333311px;line-height:125%;font-family:Calibri;text-align:start;letter-spacing:0px;word-spacing:0px;text-anchor:start;fill:#000000;fill-opacity:1;stroke:none;stroke-width:0.26458332"
       x="155.60893"
       y="258.49911"
       id="text82"><tspan
         sodipodi:role="line"
         x="155.60893"
         y="258.49911"
         id="tspan80"
         style="stroke-width:0.26458332"><tspan
           dx="0"
           dy="0"
           style="font-style:normal;font-variant:normal;font-weight:400;font-size:4.23333311px;font-family:Calibri;fill:#7f7f7f;stroke-width:0.26458332"
           id="tspan78">Java (JVM)</tspan></tspan></text>
  </g>
</svg>
