<?xml version="1.0" encoding="UTF-8" standalone="no"?>
<svg
   xmlns:dc="http://purl.org/dc/elements/1.1/"
   xmlns:cc="http://creativecommons.org/ns#"
   xmlns:rdf="http://www.w3.org/1999/02/22-rdf-syntax-ns#"
   xmlns:svg="http://www.w3.org/2000/svg"
   xmlns="http://www.w3.org/2000/svg"
   xmlns:xlink="http://www.w3.org/1999/xlink"
   xmlns:sodipodi="http://sodipodi.sourceforge.net/DTD/sodipodi-0.dtd"
   xmlns:inkscape="http://www.inkscape.org/namespaces/inkscape"
   version="1.0"
   width="157.19456mm"
   height="157.23691mm"
   id="svg984"
   sodipodi:docname="Clock.svg"
   inkscape:version="0.92.3 (2405546, 2018-03-11)">
  <metadata
     id="metadata988">
    <rdf:RDF>
      <cc:Work
         rdf:about="">
        <dc:format>image/svg+xml</dc:format>
        <dc:type
           rdf:resource="http://purl.org/dc/dcmitype/StillImage" />
        <dc:title></dc:title>
      </cc:Work>
    </rdf:RDF>
  </metadata>
  <sodipodi:namedview
     pagecolor="#ffffff"
     bordercolor="#666666"
     borderopacity="1"
     objecttolerance="10"
     gridtolerance="10"
     guidetolerance="10"
     inkscape:pageopacity="0"
     inkscape:pageshadow="2"
     inkscape:window-width="1920"
     inkscape:window-height="1017"
     id="namedview986"
     showgrid="false"
     fit-margin-top="0"
     fit-margin-left="0"
     fit-margin-right="0"
     fit-margin-bottom="0"
     inkscape:zoom="1.1045135"
     inkscape:cx="527.57031"
     inkscape:cy="355.04554"
     inkscape:window-x="-8"
     inkscape:window-y="-8"
     inkscape:window-maximized="1"
     inkscape:current-layer="svg984"
     showguides="false" />
  <defs
     id="defs830">
    <linearGradient
       inkscape:collect="always"
       id="linearGradient9994">
      <stop
         style="stop-color:#000000;stop-opacity:0"
         offset="0"
         id="stop9990" />
      <stop
         id="stop10016"
         offset="0.87035155"
         style="stop-color:#000000;stop-opacity:0" />
      <stop
         style="stop-color:#000000;stop-opacity:0.74509805"
         offset="1"
         id="stop9992" />
    </linearGradient>
    <clipPath
       clipPathUnits="userSpaceOnUse"
       id="clipEmfPath1">
      <path
         d="M 35.842487,35.842487 H 641.3245 V 641.3245 H 35.842487 Z"
         id="path826"
         inkscape:connector-curvature="0" />
    </clipPath>
    <pattern
       id="EMFhbasepattern"
       patternUnits="userSpaceOnUse"
       width="6"
       height="6"
       x="0"
       y="0" />
    <radialGradient
       inkscape:collect="always"
       xlink:href="#linearGradient9994"
       id="radialGradient10014"
       cx="313.26007"
       cy="153.36307"
       fx="313.26007"
       fy="153.36307"
       r="180.66985"
       gradientTransform="matrix(1.6356054,0.01622605,-0.01639354,1.6516697,-212.87742,38.004303)"
       gradientUnits="userSpaceOnUse" />
  </defs>
  <path
     style="opacity:1;fill:url(#radialGradient10014);fill-opacity:1;fill-rule:nonzero;stroke:#a19e9f;stroke-width:1.63548315;stroke-opacity:1"
     id="Shadow"
     sodipodi:type="arc"
     sodipodi:cx="296.97833"
     sodipodi:cy="296.39264"
     sodipodi:rx="294.70123"
     sodipodi:ry="294.62814"
     sodipodi:start="0"
     sodipodi:end="6.2709855"
     sodipodi:open="true"
     d="M 591.67957,296.39264 A 294.70123,294.62814 0 0 1 297.87716,591.01941 294.70123,294.62814 0 0 1 2.2825823,298.18983 294.70123,294.62814 0 0 1 294.2819,1.7768289 294.70123,294.62814 0 0 1 591.65763,292.79832"
     inkscape:label="Shadow" />
  <path
     style="fill:#000000;fill-opacity:1;fill-rule:nonzero;stroke:#000000;stroke-width:0.04000277px;stroke-linecap:butt;stroke-linejoin:round;stroke-miterlimit:4;stroke-dasharray:none;stroke-opacity:1"
     clip-path="url(#clipEmfPath1)"
     d="m 36.402526,338.58349 0.120008,-7.76053 0.28002,-7.76054 0.520036,-7.72054 0.640044,-7.64053 0.880061,-7.56052 1.040072,-7.56053 1.240086,-7.48052 1.4401,-7.40051 1.600111,-7.32051 1.760123,-7.2805 1.960136,-7.2005 2.120147,-7.1605 2.280158,-7.04049 2.480172,-7.00048 2.640183,-6.88048 2.800194,-6.88048 6.000417,-13.32092 6.680463,-13.04091 7.280506,-12.68088 7.880546,-12.24085 8.400583,-11.84082 8.960618,-11.44079 9.52066,-10.96076 10.0007,-10.48073 10.48073,-10.0007 10.96076,-9.52066 11.44079,-8.960618 11.84082,-8.400583 12.24085,-7.880546 12.68088,-7.280506 13.04091,-6.680463 13.32092,-6.000417 6.88048,-2.800194 6.88048,-2.640183 7.00048,-2.480172 7.04049,-2.280158 7.1605,-2.120147 7.2005,-1.960136 7.2805,-1.760123 7.32051,-1.600111 7.40051,-1.4401 7.48052,-1.240086 7.56053,-1.040072 7.56052,-0.880061 7.64053,-0.640044 7.72054,-0.520036 7.76054,-0.28002 7.76053,-0.120008 7.80054,0.120008 7.76054,0.28002 7.72054,0.520036 7.64053,0.640044 7.56052,0.880061 7.56053,1.040072 7.48052,1.240086 7.40051,1.4401 7.32051,1.600111 7.2805,1.760123 7.2005,1.960136 7.1605,2.120147 7.04049,2.280158 7.00048,2.480172 6.88048,2.640183 6.88048,2.800194 13.36093,6.000417 13.0009,6.680463 12.68088,7.280506 12.24085,7.880546 11.84082,8.400583 11.44079,8.960618 10.96076,9.52066 10.48073,10.0007 10.0007,10.48073 9.52066,10.96076 8.96062,11.44079 8.40058,11.84082 7.88055,12.24085 7.2805,12.68088 6.68047,13.04091 6.00041,13.32092 2.8002,6.88048 2.64018,6.88048 2.48017,7.00048 2.28016,7.04049 2.12015,7.1605 1.96013,7.2005 1.76013,7.2805 1.60011,7.32051 1.40009,7.40051 1.24009,7.48052 1.08007,7.56053 0.88007,7.56052 0.64004,7.64053 0.52004,7.72054 0.28002,7.76054 0.08,7.76053 -0.08,7.80054 -0.28002,7.76054 -0.52004,7.72054 -0.64004,7.64053 -0.88007,7.56052 -1.08007,7.56053 -1.24009,7.48052 -1.40009,7.40051 -1.60011,7.32051 -1.76013,7.2805 -1.96013,7.2005 -2.12015,7.1605 -2.28016,7.04049 -2.48017,7.00048 -2.64018,6.88048 -2.8002,6.88048 -6.00041,13.36093 -6.68047,13.0009 -7.2805,12.68088 -7.88055,12.24085 -8.40058,11.84082 -9.00063,11.44079 -9.48065,10.96076 -10.0007,10.48073 -10.48073,10.0007 -10.96076,9.52066 -11.44079,8.96062 -11.84082,8.40058 -12.24085,7.88055 -12.68088,7.2805 -13.0009,6.68047 -13.36093,6.00041 -6.88048,2.8002 -6.88048,2.64018 -7.00048,2.48017 -7.04049,2.28016 -7.1605,2.12015 -7.2005,1.96013 -7.2805,1.76013 -7.32051,1.60011 -7.40051,1.40009 -7.48052,1.24009 -7.56053,1.08007 -7.56052,0.88007 -7.64053,0.64004 -7.72054,0.52004 -7.76054,0.28002 -7.80054,0.08 -7.76053,-0.08 -7.76054,-0.28002 -7.72054,-0.52004 -7.64053,-0.64004 -7.56052,-0.88007 -7.56053,-1.08007 -7.48052,-1.24009 -7.40051,-1.40009 -7.32051,-1.60011 -7.2805,-1.76013 -7.2005,-1.96013 -7.1605,-2.12015 -7.04049,-2.28016 -7.00048,-2.48017 -6.88048,-2.64018 -6.88048,-2.8002 -13.32092,-6.00041 -13.04091,-6.68047 -12.68088,-7.2805 -12.24085,-7.88055 -11.84082,-8.40058 -11.44079,-8.96062 -10.96076,-9.52066 -10.48073,-10.0007 -10.0007,-10.48073 -9.52066,-10.96076 -8.960618,-11.44079 -8.400583,-11.84082 -7.880546,-12.24085 -7.280506,-12.68088 -6.680463,-13.0009 -6.000417,-13.36093 -2.800194,-6.88048 -2.640183,-6.88048 -2.480172,-7.00048 -2.280158,-7.04049 -2.120147,-7.1605 -1.960136,-7.2005 -1.760123,-7.2805 -1.600111,-7.32051 -1.4401,-7.40051 -1.240086,-7.48052 -1.040072,-7.56053 -0.880061,-7.56052 -0.640044,-7.64053 -0.520036,-7.72054 -0.28002,-7.76054 z m 2.200153,7.76054 0.280019,7.68053 0.480033,7.68054 0.680047,7.56052 0.880062,7.56053 1.040072,7.48052 1.240086,7.40051 1.400097,7.36051 1.560108,7.32051 1.800125,7.2005 1.920133,7.16049 2.120147,7.0805 2.280159,7.04048 2.440169,6.92048 2.60018,6.84048 2.760192,6.80047 6.000416,13.28092 6.640461,12.9209 7.240502,12.60087 7.800542,12.16085 8.36058,11.76081 8.920621,11.36079 9.40065,10.88076 9.96069,10.40072 10.40072,9.96069 10.92076,9.40065 11.32079,8.92062 11.76081,8.36058 12.16085,7.80054 12.56087,7.2405 12.9609,6.64047 13.28092,6.00041 6.80047,2.76019 6.84048,2.60018 6.92048,2.44017 7.04048,2.28016 7.0805,2.12015 7.16049,1.92013 7.2005,1.76012 7.32051,1.60011 7.36051,1.4001 7.40051,1.24009 7.48052,1.04007 7.56053,0.88006 7.56052,0.64005 7.68053,0.52003 7.68054,0.28002 7.72053,0.08 7.76054,-0.08 7.68053,-0.28002 7.68054,-0.52003 7.56052,-0.64005 7.56053,-0.88006 7.48052,-1.04007 7.40051,-1.24009 7.36051,-1.4001 7.32051,-1.60011 7.2005,-1.76012 7.16049,-1.92013 7.0805,-2.12015 7.04048,-2.28016 6.92048,-2.44017 6.84048,-2.60018 6.80047,-2.76019 13.28092,-6.00041 12.9209,-6.64047 12.60087,-7.2405 12.16085,-7.80054 11.76081,-8.36058 11.36079,-8.92062 10.88076,-9.40065 10.40072,-9.96069 9.96069,-10.40072 9.40065,-10.88076 8.92062,-11.36079 8.36058,-11.76081 7.80054,-12.16085 7.2405,-12.60087 6.64047,-12.9209 6.00041,-13.28092 2.76019,-6.80047 2.60018,-6.84048 2.44017,-6.92048 2.28016,-7.04048 2.12015,-7.0805 1.92013,-7.16049 1.76012,-7.2005 1.60011,-7.32051 1.4001,-7.36051 1.24009,-7.40051 1.04007,-7.48052 0.88006,-7.56053 0.64005,-7.56052 0.52003,-7.68054 0.28002,-7.68053 0.08,-7.76054 -0.08,-7.72053 -0.28002,-7.68054 -0.52003,-7.68053 -0.64005,-7.56052 -0.88006,-7.56053 -1.04007,-7.48052 -1.24009,-7.40051 -1.4001,-7.36051 -1.60011,-7.32051 -1.76012,-7.2005 -1.92013,-7.16049 -2.12015,-7.0805 -2.28016,-7.04048 -2.44017,-6.92048 -2.60018,-6.84048 -2.76019,-6.80047 -6.00041,-13.28092 -6.64047,-12.9609 -7.2405,-12.56087 -7.80054,-12.16085 -8.36058,-11.76081 -8.92062,-11.32079 -9.40065,-10.92076 -9.96069,-10.40072 -10.40072,-9.96069 -10.88076,-9.40065 -11.36079,-8.920621 -11.76081,-8.36058 -12.16085,-7.800542 -12.60087,-7.240502 -12.9209,-6.640461 -13.28092,-6.000416 -6.80047,-2.760192 -6.84048,-2.60018 -6.92048,-2.440169 -7.04048,-2.280159 -7.0805,-2.120147 -7.16049,-1.920133 -7.2005,-1.800125 -7.32051,-1.560108 -7.36051,-1.400097 -7.40051,-1.240086 -7.48052,-1.040072 -7.56053,-0.880062 -7.56052,-0.680047 -7.68054,-0.480033 -7.68053,-0.280019 -7.76054,-0.120009 -7.72053,0.120009 -7.68054,0.280019 -7.68053,0.480033 -7.56052,0.680047 -7.56053,0.880062 -7.48052,1.040072 -7.40051,1.240086 -7.36051,1.400097 -7.32051,1.560108 -7.2005,1.800125 -7.16049,1.920133 -7.0805,2.120147 -7.04048,2.280159 -6.92048,2.440169 -6.84048,2.60018 -6.80047,2.760192 -13.28092,6.000416 -12.9609,6.640461 -12.56087,7.240502 -12.16085,7.800542 -11.76081,8.36058 -11.32079,8.920621 -10.92076,9.40065 -10.40072,9.96069 -9.96069,10.40072 -9.40065,10.92076 -8.920621,11.32079 -8.36058,11.76081 -7.800542,12.16085 -7.240502,12.56087 -6.640461,12.9609 -6.000416,13.28092 -2.760192,6.80047 -2.60018,6.84048 -2.440169,6.92048 -2.280159,7.04048 -2.120147,7.0805 -1.920133,7.16049 -1.800125,7.2005 -1.560108,7.32051 -1.400097,7.36051 -1.240086,7.40051 -1.040072,7.48052 -0.880062,7.56053 -0.680047,7.56052 -0.480033,7.68053 -0.280019,7.68054 -0.120009,7.72053 z m 1.960136,-7.76054 0.120008,-7.68053 0.280019,-7.64053 0.480034,-7.60053 0.680047,-7.52052 0.840058,-7.48052 1.040072,-7.44051 1.240086,-7.36051 1.400097,-7.32051 1.560109,-7.24051 1.760122,-7.16049 1.920133,-7.1205 2.080144,-7.04048 2.280159,-6.96049 2.440169,-6.88048 2.560178,-6.80047 2.760191,-6.76047 5.960414,-13.16091 6.600458,-12.88089 7.160497,-12.48087 7.760538,-12.08084 8.320577,-11.68081 8.840615,-11.24078 9.36065,-10.84075 9.88068,-10.32072 10.32072,-9.88068 10.84075,-9.36065 11.24078,-8.840615 11.68081,-8.320577 12.08084,-7.760538 12.48087,-7.160497 12.88089,-6.600458 13.16091,-5.960414 6.76047,-2.760191 6.80047,-2.560178 6.88048,-2.440169 6.96049,-2.280159 7.04048,-2.080144 7.1205,-1.920133 7.16049,-1.760122 7.24051,-1.560109 7.32051,-1.400097 7.36051,-1.240086 7.44051,-1.040072 7.48052,-0.840058 7.52052,-0.680047 7.60053,-0.480034 7.64053,-0.280019 7.68053,-0.120008 7.72054,0.120008 7.64053,0.280019 7.60053,0.480034 7.52052,0.680047 7.48052,0.840058 7.44051,1.040072 7.36051,1.240086 7.32051,1.400097 7.24051,1.560109 7.16049,1.760122 7.1205,1.920133 7.04048,2.080144 6.96049,2.280159 6.88047,2.440169 6.80048,2.560178 6.72046,2.760191 13.20092,5.960414 12.88089,6.600458 12.48087,7.160497 12.08084,7.760538 11.68081,8.320577 11.28078,8.840615 10.80075,9.36065 10.32072,9.88068 9.88068,10.32072 9.36065,10.84075 8.88062,11.24078 8.28057,11.68081 7.76054,12.08084 7.1605,12.48087 6.60046,12.88089 5.96041,13.16091 2.76019,6.76047 2.56018,6.80047 2.44017,6.88048 2.28016,6.96049 2.08014,7.04048 1.92013,7.1205 1.76013,7.16049 1.5601,7.24051 1.4001,7.32051 1.24009,7.36051 1.04007,7.44051 0.84006,7.48052 0.68004,7.52052 0.48004,7.60053 0.28002,7.64053 0.08,7.68053 -0.08,7.72054 -0.28002,7.64053 -0.48004,7.60053 -0.68004,7.52052 -0.84006,7.48052 -1.04007,7.44051 -1.24009,7.36051 -1.4001,7.32051 -1.5601,7.24051 -1.76013,7.16049 -1.92013,7.1205 -2.08014,7.04048 -2.28016,6.96049 -2.44017,6.88047 -2.56018,6.80048 -2.76019,6.72046 -5.96041,13.20092 -6.60046,12.88089 -7.1605,12.48087 -7.76054,12.08084 -8.28057,11.68081 -8.88062,11.28078 -9.36065,10.80075 -9.88068,10.32072 -10.32072,9.88068 -10.80075,9.36065 -11.28078,8.88062 -11.68081,8.28057 -12.08084,7.76054 -12.48087,7.1605 -12.88089,6.60046 -13.20092,5.96041 -6.72046,2.76019 -6.80048,2.56018 -6.88047,2.44017 -6.96049,2.28016 -7.04048,2.08014 -7.1205,1.92013 -7.16049,1.76013 -7.24051,1.5601 -7.32051,1.4001 -7.36051,1.24009 -7.44051,1.04007 -7.48052,0.84006 -7.52052,0.68004 -7.60053,0.48004 -7.64053,0.28002 -7.72054,0.08 -7.68053,-0.08 -7.64053,-0.28002 -7.60053,-0.48004 -7.52052,-0.68004 -7.48052,-0.84006 -7.44051,-1.04007 -7.36051,-1.24009 -7.32051,-1.4001 -7.24051,-1.5601 -7.16049,-1.76013 -7.1205,-1.92013 -7.04048,-2.08014 -6.96049,-2.28016 -6.88048,-2.44017 -6.80047,-2.56018 -6.76047,-2.76019 -13.16091,-5.96041 -12.88089,-6.60046 -12.48087,-7.1605 -12.08084,-7.76054 -11.68081,-8.28057 -11.24078,-8.88062 -10.84075,-9.36065 -10.32072,-9.88068 -9.88068,-10.32072 -9.36065,-10.80075 -8.840615,-11.28078 -8.320577,-11.68081 -7.760538,-12.08084 -7.160497,-12.48087 -6.600458,-12.88089 -5.960414,-13.20092 -2.760191,-6.72046 -2.560178,-6.80048 -2.440169,-6.88047 -2.280159,-6.96049 -2.080144,-7.04048 -1.920133,-7.1205 -1.760122,-7.16049 -1.560109,-7.24051 -1.400097,-7.32051 -1.240086,-7.36051 -1.040072,-7.44051 -0.840058,-7.48052 -0.680047,-7.52052 -0.480034,-7.60053 -0.280019,-7.64053 z m 6.360441,7.56053 0.280019,7.48052 0.480034,7.44051 0.640044,7.36051 0.840058,7.36051 1.00007,7.24051 1.200083,7.2405 1.400097,7.1605 1.520106,7.08049 1.720119,7.00048 1.88013,6.96049 2.040142,6.92048 2.240155,6.80047 2.360164,6.72047 2.520175,6.68046 2.680186,6.56045 5.880408,12.9609 6.440447,12.56087 7.000486,12.24085 7.600527,11.80082 8.160564,11.4808 8.6406,11.00076 9.16064,10.60074 9.68067,10.1207 10.1207,9.68067 10.60074,9.16064 11.04076,8.6806 11.40079,8.12056 11.88083,7.60053 12.20085,7.00049 12.56087,6.44044 12.9609,5.88041 6.56045,2.68019 6.68046,2.52017 6.72047,2.36017 6.84048,2.24015 6.88047,2.04014 6.96049,1.88013 7.00048,1.72012 7.08049,1.52011 7.1605,1.36009 7.2405,1.20009 7.2405,1.04007 7.36052,0.84006 7.36051,0.64004 7.44051,0.48003 7.48052,0.28002 7.52052,0.08 7.56053,-0.08 7.48052,-0.28002 7.44051,-0.48003 7.36051,-0.64004 7.36051,-0.84006 7.24051,-1.04007 7.2405,-1.20009 7.1605,-1.36009 7.08049,-1.52011 7.00048,-1.72012 6.96049,-1.88013 6.92048,-2.04014 6.80047,-2.24015 6.72047,-2.36017 6.68046,-2.52017 6.56045,-2.68019 12.9609,-5.88041 12.56087,-6.44044 12.24085,-7.00049 11.80082,-7.60053 11.4808,-8.12056 11.00076,-8.6806 10.60074,-9.16064 10.1207,-9.68067 9.68067,-10.1207 9.16064,-10.60074 8.6806,-11.00076 8.12056,-11.4808 7.60053,-11.80082 7.00049,-12.24085 6.44044,-12.56087 5.88041,-12.9609 2.68019,-6.56045 2.52017,-6.68046 2.36017,-6.72047 2.24015,-6.80047 2.04014,-6.92048 1.88013,-6.96049 1.72012,-7.00048 1.52011,-7.08049 1.36009,-7.1605 1.20009,-7.2405 1.04007,-7.24051 0.84006,-7.36051 0.64004,-7.36051 0.48003,-7.44051 0.28002,-7.48052 0.08,-7.56053 -0.08,-7.52052 -0.28002,-7.48052 -0.48003,-7.44051 -0.64004,-7.36051 -0.84006,-7.36052 -1.04007,-7.2405 -1.20009,-7.2405 -1.36009,-7.1605 -1.52011,-7.08049 -1.72012,-7.00048 -1.88013,-6.96049 -2.04014,-6.88047 -2.24015,-6.84048 -2.36017,-6.72047 -2.52017,-6.68046 -2.68019,-6.56045 -5.88041,-12.9609 -6.44044,-12.56087 -7.00049,-12.20085 -7.60053,-11.84082 -8.12056,-11.4408 -8.6806,-11.04076 -9.16064,-10.60074 -9.68067,-10.1207 -10.1207,-9.68067 -10.60074,-9.16064 -11.00076,-8.6406 -11.4808,-8.160564 -11.80082,-7.600527 -12.24085,-7.000486 -12.56087,-6.440447 -12.9609,-5.880408 -6.56045,-2.680186 -6.68046,-2.520175 -6.72047,-2.360164 -6.80047,-2.240155 -6.92048,-2.040142 -6.96049,-1.88013 -7.00048,-1.720119 -7.08049,-1.520106 -7.1605,-1.400097 -7.2405,-1.200083 -7.24051,-1.00007 -7.36051,-0.840058 -7.36051,-0.640044 -7.44051,-0.480034 -7.48052,-0.280019 -7.56053,-0.120008 -7.52052,0.120008 -7.48052,0.280019 -7.44051,0.480034 -7.36051,0.640044 -7.36052,0.840058 -7.2405,1.00007 -7.2405,1.200083 -7.1605,1.400097 -7.08049,1.520106 -7.00048,1.720119 -6.96049,1.88013 -6.88047,2.040142 -6.84048,2.240155 -6.72047,2.360164 -6.68046,2.520175 -6.56045,2.680186 -12.9609,5.880408 -12.56087,6.440447 -12.20085,7.000486 -11.84082,7.600527 -11.4408,8.160564 -11.04076,8.6406 -10.60074,9.16064 -10.1207,9.68067 -9.68067,10.1207 -9.16064,10.60074 -8.6406,11.04076 -8.160564,11.4408 -7.600527,11.84082 -7.000486,12.20085 -6.440447,12.56087 -5.880408,12.9609 -2.680186,6.56045 -2.520175,6.68046 -2.360164,6.72047 -2.240155,6.84048 -2.040142,6.88047 -1.88013,6.96049 -1.720119,7.00048 -1.520106,7.08049 -1.400097,7.1605 -1.200083,7.2405 -1.00007,7.2405 -0.840058,7.36052 -0.640044,7.36051 -0.480034,7.44051 -0.280019,7.48052 -0.120008,7.52052 z"
     id="Border"
     inkscape:connector-curvature="0"
     transform="translate(-41.602886,-41.442875)"
     inkscape:label="Border" />
  <path
     style="fill:#000000;stroke:#000000;stroke-width:2;stroke-linecap:butt;stroke-linejoin:miter;stroke-miterlimit:4;stroke-dasharray:none;stroke-opacity:1"
     d="M 325.70312 14.960938 L 318.98242 78.845703 L 325.70312 14.960938 z M 267.05859 15.400391 L 273.87891 80.146484 L 267.05859 15.400391 z M 355.66406 19.28125 L 342.02344 83.365234 L 355.66406 19.28125 z M 238.37695 19.681641 L 251.81836 82.945312 L 238.37695 19.681641 z M 384.74609 27.28125 L 364.74609 88.806641 L 384.74609 27.28125 z M 209.1543 27.341797 L 229.39648 89.626953 L 209.1543 27.341797 z M 411.70898 38.001953 L 385.22656 97.486328 L 411.70898 38.001953 z M 181.0918 38.501953 L 207.21484 97.1875 L 181.0918 38.501953 z M 463.03125 67.404297 L 425.26953 119.36914 L 463.03125 67.404297 z M 129.94922 68.164062 L 168.21094 120.84766 L 129.94922 68.164062 z M 486.75391 86.125 L 442.95117 134.80859 L 486.75391 86.125 z M 107.24805 86.226562 L 150.53125 134.28906 L 107.24805 86.226562 z M 85.785156 107.4668 L 134.44922 151.29102 L 85.785156 107.4668 z M 507.99609 107.60742 L 459.91211 150.89062 L 507.99609 107.60742 z M 526.03711 130.32812 L 473.39258 168.57227 L 526.03711 130.32812 z M 67.044922 131.18945 L 119.00781 168.93164 L 67.044922 131.18945 z M 555.79883 181.33203 L 497.11523 207.45508 L 555.79883 181.33203 z M 37.681641 182.49219 L 97.166016 208.97461 L 37.681641 182.49219 z M 27.121094 209.375 L 88.646484 229.375 L 27.121094 209.375 z M 566.95898 209.41406 L 504.67578 229.65625 L 566.95898 209.41406 z M 19.121094 238.49609 L 83.205078 252.11719 L 19.121094 238.49609 z M 574.59961 238.61719 L 511.35547 252.05664 L 574.59961 238.61719 z M 578.88086 267.29883 L 514.15625 274.09961 L 578.88086 267.29883 z M 14.800781 268.41797 L 78.685547 275.13867 L 14.800781 268.41797 z M 515.15625 319.62305 L 579.04102 326.3418 L 515.15625 319.62305 z M 79.625 320.76172 L 14.880859 327.5625 L 79.625 320.76172 z M 510.51562 342.66406 L 574.59961 356.30469 L 510.51562 342.66406 z M 82.445312 342.80469 L 19.162109 356.26562 L 82.445312 342.80469 z M 89.126953 365.22461 L 26.822266 385.4668 L 89.126953 365.22461 z M 505.07422 365.38477 L 566.59961 385.38672 L 505.07422 365.38477 z M 496.59375 385.86719 L 556.07812 412.34766 L 496.59375 385.86719 z M 96.6875 387.42773 L 38.001953 413.54883 L 96.6875 387.42773 z M 474.99219 425.75 L 526.95703 463.47266 L 474.99219 425.75 z M 120.26758 425.91016 L 67.605469 464.19141 L 120.26758 425.91016 z M 459.55273 443.39062 L 508.23438 487.19336 L 459.55273 443.39062 z M 133.72852 443.61133 L 85.666016 486.89453 L 133.72852 443.61133 z M 150.73047 459.69141 L 106.9082 508.35547 L 150.73047 459.69141 z M 443.4707 460.39258 L 486.75391 508.43555 L 443.4707 460.39258 z M 425.78906 473.83203 L 464.07227 526.51562 L 425.78906 473.83203 z M 168.37109 475.13281 L 130.60938 527.0957 L 168.37109 475.13281 z M 208.33398 497.07422 L 181.85352 556.55859 L 208.33398 497.07422 z M 386.78711 497.47461 L 412.9082 556.1582 L 386.78711 497.47461 z M 364.58594 505.03516 L 384.82617 567.35938 L 364.58594 505.03516 z M 228.89648 505.71484 L 208.89453 567.24023 L 228.89648 505.71484 z M 251.6582 510.99609 L 238.01562 575.08008 L 251.6582 510.99609 z M 342.18359 511.71484 L 355.625 575 L 342.18359 511.71484 z M 320.14258 514.51562 L 326.94336 579.2793 L 320.14258 514.51562 z M 274.6582 515.63672 L 267.93945 579.51953 L 274.6582 515.63672 z "
     id="ThinMatks"
     inkscape:label="ThinMatks" />
  <path
     style="fill:#000000;fill-opacity:1;fill-rule:evenodd;stroke:none"
     d="M 288.25977 13.521484 L 288.25977 78.326172 L 305.38086 78.326172 L 305.38086 13.521484 L 288.25977 13.521484 z M 431.34961 47.443359 L 398.94727 103.56641 L 413.70898 112.08789 L 446.11133 55.964844 L 431.34961 47.443359 z M 162.71094 47.462891 L 147.95117 55.984375 L 180.35156 112.10742 L 195.11328 103.56641 L 162.71094 47.462891 z M 55.603516 148.10938 L 47.083984 162.87109 L 103.20703 195.27344 L 111.72852 180.51172 L 55.603516 148.10938 z M 538.31641 148.21094 L 482.19336 180.61328 L 490.71484 195.37305 L 546.83789 162.9707 L 538.31641 148.21094 z M 13.361328 288.90039 L 13.361328 305.86133 L 78.166016 305.86133 L 78.166016 288.90039 L 13.361328 288.90039 z M 515.63672 288.90039 L 515.63672 306.02148 L 580.43945 306.02148 L 580.43945 288.90039 L 515.63672 288.90039 z M 490.79492 399.38867 L 482.27344 414.14844 L 538.39648 446.55078 L 546.91797 431.78906 L 490.79492 399.38867 z M 103.06641 399.50781 L 46.943359 431.91016 L 55.484375 446.67188 L 111.58789 414.26953 L 103.06641 399.50781 z M 179.95312 482.41406 L 147.55078 538.51758 L 162.31055 547.05859 L 194.71289 490.93359 L 179.95312 482.41406 z M 413.66797 482.59375 L 398.9082 491.11328 L 431.31055 547.19727 L 446.07031 538.67773 L 413.66797 482.59375 z M 288.25977 516.11523 L 288.25977 580.91992 L 305.38086 580.91992 L 305.38086 516.11523 L 288.25977 516.11523 z "
     id="ThickMarks"
     inkscape:label="ThickMarks" />
</svg>
